<svg width="28" height="28" viewBox="0 0 28 28" fill="none" xmlns="http://www.w3.org/2000/svg">
<mask id="mask0_1_197" style="mask-type:alpha" maskUnits="userSpaceOnUse" x="0" y="0" width="28" height="28">
<rect width="28" height="28" fill="#D9D9D9"/>
</mask>
<g mask="url(#mask0_1_197)">
<path d="M13.9413 20.9999C14.3497 20.9999 14.6948 20.8589 14.9768 20.577C15.2587 20.2951 15.3997 19.9499 15.3997 19.5416C15.3997 19.1333 15.2587 18.7881 14.9768 18.5062C14.6948 18.2242 14.3497 18.0833 13.9413 18.0833C13.533 18.0833 13.1879 18.2242 12.9059 18.5062C12.624 18.7881 12.483 19.1333 12.483 19.5416C12.483 19.9499 12.624 20.2951 12.9059 20.577C13.1879 20.8589 13.533 20.9999 13.9413 20.9999ZM12.8913 16.5083H15.0497C15.0497 15.8666 15.1226 15.361 15.2684 14.9916C15.4143 14.6221 15.8275 14.1166 16.508 13.4749C17.0136 12.9694 17.4122 12.4881 17.7038 12.0312C17.9955 11.5742 18.1413 11.0249 18.1413 10.3833C18.1413 9.29436 17.7427 8.45825 16.9455 7.87492C16.1483 7.29159 15.2052 6.99992 14.1163 6.99992C13.008 6.99992 12.1087 7.29159 11.4184 7.87492C10.7281 8.45825 10.2469 9.15825 9.97468 9.97492L11.8997 10.7333C11.9969 10.3833 12.2156 10.0041 12.5559 9.59575C12.8962 9.18742 13.4163 8.98325 14.1163 8.98325C14.7386 8.98325 15.2052 9.15339 15.5163 9.49367C15.8275 9.83395 15.983 10.2083 15.983 10.6166C15.983 11.0055 15.8663 11.3701 15.633 11.7103C15.3997 12.0506 15.108 12.3666 14.758 12.6583C13.9025 13.4166 13.3775 13.9902 13.183 14.3791C12.9886 14.768 12.8913 15.4777 12.8913 16.5083ZM13.9997 25.6666C12.3858 25.6666 10.8691 25.3603 9.44968 24.7478C8.03023 24.1353 6.79551 23.3041 5.74551 22.2541C4.69551 21.2041 3.86426 19.9694 3.25176 18.5499C2.63926 17.1305 2.33301 15.6138 2.33301 13.9999C2.33301 12.386 2.63926 10.8694 3.25176 9.44992C3.86426 8.03047 4.69551 6.79575 5.74551 5.74575C6.79551 4.69575 8.03023 3.8645 9.44968 3.252C10.8691 2.6395 12.3858 2.33325 13.9997 2.33325C15.6136 2.33325 17.1302 2.6395 18.5497 3.252C19.9691 3.8645 21.2038 4.69575 22.2538 5.74575C23.3038 6.79575 24.1351 8.03047 24.7476 9.44992C25.3601 10.8694 25.6663 12.386 25.6663 13.9999C25.6663 15.6138 25.3601 17.1305 24.7476 18.5499C24.1351 19.9694 23.3038 21.2041 22.2538 22.2541C21.2038 23.3041 19.9691 24.1353 18.5497 24.7478C17.1302 25.3603 15.6136 25.6666 13.9997 25.6666ZM13.9997 23.3333C16.6052 23.3333 18.8122 22.4291 20.6205 20.6208C22.4288 18.8124 23.333 16.6055 23.333 13.9999C23.333 11.3944 22.4288 9.18742 20.6205 7.37909C18.8122 5.57075 16.6052 4.66659 13.9997 4.66659C11.3941 4.66659 9.18718 5.57075 7.37884 7.37909C5.57051 9.18742 4.66634 11.3944 4.66634 13.9999C4.66634 16.6055 5.57051 18.8124 7.37884 20.6208C9.18718 22.4291 11.3941 23.3333 13.9997 23.3333Z" fill="#1C1B1F"/>
<mask id="mask1_1_197" style="mask-type:alpha" maskUnits="userSpaceOnUse" x="0" y="0" width="28" height="28">
<rect width="28" height="28" fill="#D9D9D9"/>
</mask>
<g mask="url(#mask1_1_197)">
<path d="M13.9413 20.9999C14.3497 20.9999 14.6948 20.8589 14.9768 20.577C15.2587 20.2951 15.3997 19.9499 15.3997 19.5416C15.3997 19.1333 15.2587 18.7881 14.9768 18.5062C14.6948 18.2242 14.3497 18.0833 13.9413 18.0833C13.533 18.0833 13.1879 18.2242 12.9059 18.5062C12.624 18.7881 12.483 19.1333 12.483 19.5416C12.483 19.9499 12.624 20.2951 12.9059 20.577C13.1879 20.8589 13.533 20.9999 13.9413 20.9999ZM12.8913 16.5083H15.0497C15.0497 15.8666 15.1226 15.361 15.2684 14.9916C15.4143 14.6221 15.8275 14.1166 16.508 13.4749C17.0136 12.9694 17.4122 12.4881 17.7038 12.0312C17.9955 11.5742 18.1413 11.0249 18.1413 10.3833C18.1413 9.29436 17.7427 8.45825 16.9455 7.87492C16.1483 7.29159 15.2052 6.99992 14.1163 6.99992C13.008 6.99992 12.1087 7.29159 11.4184 7.87492C10.7281 8.45825 10.2469 9.15825 9.97468 9.97492L11.8997 10.7333C11.9969 10.3833 12.2156 10.0041 12.5559 9.59575C12.8962 9.18742 13.4163 8.98325 14.1163 8.98325C14.7386 8.98325 15.2052 9.15339 15.5163 9.49367C15.8275 9.83395 15.983 10.2083 15.983 10.6166C15.983 11.0055 15.8663 11.3701 15.633 11.7103C15.3997 12.0506 15.108 12.3666 14.758 12.6583C13.9025 13.4166 13.3775 13.9902 13.183 14.3791C12.9886 14.768 12.8913 15.4777 12.8913 16.5083ZM13.9997 25.6666C12.3858 25.6666 10.8691 25.3603 9.44968 24.7478C8.03023 24.1353 6.79551 23.3041 5.74551 22.2541C4.69551 21.2041 3.86426 19.9694 3.25176 18.5499C2.63926 17.1305 2.33301 15.6138 2.33301 13.9999C2.33301 12.386 2.63926 10.8694 3.25176 9.44992C3.86426 8.03047 4.69551 6.79575 5.74551 5.74575C6.79551 4.69575 8.03023 3.8645 9.44968 3.252C10.8691 2.6395 12.3858 2.33325 13.9997 2.33325C15.6136 2.33325 17.1302 2.6395 18.5497 3.252C19.9691 3.8645 21.2038 4.69575 22.2538 5.74575C23.3038 6.79575 24.1351 8.03047 24.7476 9.44992C25.3601 10.8694 25.6663 12.386 25.6663 13.9999C25.6663 15.6138 25.3601 17.1305 24.7476 18.5499C24.1351 19.9694 23.3038 21.2041 22.2538 22.2541C21.2038 23.3041 19.9691 24.1353 18.5497 24.7478C17.1302 25.3603 15.6136 25.6666 13.9997 25.6666ZM13.9997 23.3333C16.6052 23.3333 18.8122 22.4291 20.6205 20.6208C22.4288 18.8124 23.333 16.6055 23.333 13.9999C23.333 11.3944 22.4288 9.18742 20.6205 7.37909C18.8122 5.57075 16.6052 4.66659 13.9997 4.66659C11.3941 4.66659 9.18718 5.57075 7.37884 7.37909C5.57051 9.18742 4.66634 11.3944 4.66634 13.9999C4.66634 16.6055 5.57051 18.8124 7.37884 20.6208C9.18718 22.4291 11.3941 23.3333 13.9997 23.3333Z" fill="#1C1B1F"/>
</g>
</g>
</svg>
